<?xml version="1.0" encoding="UTF-8" standalone="no"?>
<!-- Created with Inkscape (http://www.inkscape.org/) -->

<svg
   width="217.76123"
   height="288.59995"
   viewBox="0 0 57.616002 76.358749"
   version="1.1"
   id="svg1"
   xml:space="preserve"
   xmlns="http://www.w3.org/2000/svg"
   xmlns:svg="http://www.w3.org/2000/svg"><defs
     id="defs1" /><g
     id="g1"
     style="display:inline"
     transform="translate(-38.770767,-28.434872)"><g
       id="g3"
       style="display:inline"><path
         id="path4"
         style="display:inline;fill:currentColor;fill-opacity:1;stroke:none;stroke-width:0.1;stroke-dasharray:none;stroke-opacity:0.795053"
         d="m 66.359785,28.434962 c -7.198736,-0.01818 -14.522365,2.682668 -17.41186,8.438763 -7.112241,0.384901 -7.426147,9.019995 -2.617411,12.654527 1.040425,8.47786 1.327031,14.513265 -3.4339,29.405962 -1.738279,5.43752 -4.012945,12.16916 -4.125847,25.772596 h 1.600936 c 1.513068,-9.955091 4.749621,-16.874405 7.891509,-25.052743 3.09409,-8.05392 5.885937,-19.327429 4.35064,-27.859803 -1.011847,-5.623315 -2.382901,-8.331838 -0.01964,-12.620938 5.467027,-9.922132 21.528902,-10.85146 29.560475,-1.565796 1.332152,1.540161 3.10911,2.792644 5.594491,3.96255 2.883768,1.357433 4.790844,2.334978 4.691704,2.504757 -3.95645,1.012936 -3.223936,3.075341 -0.613399,4.565097 -1.656485,1.906036 -5.894507,3.571367 -14.328327,5.212086 -4.059168,0.789672 -8.134399,1.714077 -10.741982,4.30413 8.381301,6.331651 15.586368,28.190905 12.513451,46.56357 l 9.609751,0.0739 C 88.306119,96.156372 87.968164,91.064209 83.14481,78.500649 82.43185,76.643577 79.562977,72.027358 78.80709,69.917708 76.300336,62.921456 73.64153,58.702447 81.937649,56.216734 c 1.603887,-0.480562 8.763064,-1.938296 13.169224,-8.005198 1.998737,-2.752089 1.571472,-4.617177 -0.68988,-5.674073 L 89.36097,40.174816 c -2.454133,-1.146997 -4.57854,-2.789064 -6.367572,-4.769736 -2.480164,-2.745838 -3.501724,-3.317134 -4.79609,-4.073654 -3.244146,-1.896111 -7.51828,-2.885557 -11.837523,-2.896464 z m 6.714837,8.660971 c -2.007251,0.05122 -4.176807,1.123396 -6.033741,3.30936 1.843959,3.098507 7.662744,6.104643 11.959479,1.360124 -1.032704,-3.112941 -3.344986,-4.735332 -5.925738,-4.669484 z m 0.784449,2.011248 a 0.94763869,1.2326087 0 0 1 0.947746,1.232483 0.94763869,1.2326087 0 0 1 -0.947746,1.232483 0.94763869,1.2326087 0 0 1 -0.94723,-1.232483 0.94763869,1.2326087 0 0 1 0.94723,-1.232483 z" /></g></g></svg>
